# xmcd
#
# Track frame offsets: 
#        150
#        15123
#        31616
#        46710
#        61334
#        77578
#        94396
#        111865
#        128793
#        146477
#        161891
#        179824
#
# Disc length: 2634 seconds
#
# Revision: 0
# Processed by: cddbd v1.5.1PL2 Copyright (c) Steve Scherf et al.
# Submitted via: ExactAudioCopy v0.95b3
#
DISCID=940a480c
DTITLE=Orawee Sujjanon - Kwun Muang vol.1 Audio only
DYEAR=2002
DGENRE=Country
TTITLE0=Nhong harn tawan ron
TTITLE1=Kid hord nong haen
TTITLE2=Sung khon jai rai
TTITLE3=Noom mhor kaen
TTITLE4=Kra tong lhong tang
TTITLE5=Renu yung nao
TTITLE6=Kaen lum khong
TTITLE7=Lum krom toong
TTITLE8=Sao Ubol ror ruk
TTITLE9=Lhong koi mhor kaen
TTITLE10=Koi duan bor kor sor
TTITLE11=Lhun thom kuen toong
EXTD=
EXTT0=
EXTT1=
EXTT2=
EXTT3=
EXTT4=
EXTT5=
EXTT6=
EXTT7=
EXTT8=
EXTT9=
EXTT10=
EXTT11=
PLAYORDER=
